<?xml version="1.0" standalone="no"?><!DOCTYPE svg PUBLIC "-//W3C//DTD SVG 1.1//EN" "http://www.w3.org/Graphics/SVG/1.1/DTD/svg11.dtd"><svg t="1706580082269" class="icon" viewBox="0 0 1024 1024" version="1.1" xmlns="http://www.w3.org/2000/svg" p-id="12967" xmlns:xlink="http://www.w3.org/1999/xlink" width="200" height="200"><path d="M360 399.2l13.6-106c25.6 8 43.6 32 43.6 58.8v46.8H360zM180.4 399.2V352c0-25.6 23.2-51.2 52.4-59.2l13.6 106H180.4z" fill="#E0E0E0" p-id="12968"></path><path d="M302.8 275.6c-42.4 0-77.2-34.8-77.2-77.2 0-42.4 34.8-77.2 77.2-77.2S380 155.6 380 198.4c0 42.4-34.4 77.2-77.2 77.2z m0-142.4c-36 0-64.8 29.2-64.8 64.8 0 36 29.2 64.8 64.8 64.8S368 234 368 198.4c0-36-29.2-65.2-65.2-65.2z" fill="#4A555F" p-id="12969"></path><path d="M302.8 249.6c-28.4 0-51.2-22.8-51.2-51.2s22.8-51.2 51.2-51.2c28.4 0 51.2 22.8 51.2 51.2 0 28-22.8 51.2-51.2 51.2z" fill="#FFD552" p-id="12970"></path><path d="M445.2 399.2h-12.4V384v-30.8c-1.2-43.6-36-76.8-80.4-77.6-19.6-0.4-40 0-59.2 0h-36.4c-9.2 0-18.8 0-27.6 1.6-22 4.4-41.6 18.4-52.8 38-11.6 20.4-11.2 45.2-10.8 69.2 0 4.8 0.4 10 0.4 14.8h-12.4c0-4.8 0-9.6-0.4-14.4-0.4-26-1.2-52.8 12.4-76 12.8-22.4 36-38.8 61.2-44 10-2 20-2 30-1.6h95.6c50.4 0.8 90.8 40 92.4 89.6 0.4 10.4 0.4 21.2 0 31.2 0.4 4.8 0.4 10 0.4 15.2z" fill="#4A555F" p-id="12971"></path><path d="M261.6 400L244 263.2h26.8l26.4 31.6-30 52.4 6.4 51.2-12 1.6z m-3.6-124.4l6.8 51.6 17.6-30.8-17.2-20.8h-7.2zM346 400l-12-1.6 6.4-51.2-30-52.4 26.4-31.6h26.8L346 400z m-20.8-104l17.6 30.8 6.8-51.6h-6.8L325.2 296zM297.2 311.6h12.4v87.6h-12.4z" fill="#4A555F" p-id="12972"></path><path d="M303.2 321.2l-18.4-22 9.6-7.6 8.8 10.8 10.8-12 9.2 8z" fill="#4A555F" p-id="12973"></path><path d="M323.2 362m-7.2 0a7.2 7.2 0 1 0 14.4 0 7.2 7.2 0 1 0-14.4 0Z" fill="#4A555F" p-id="12974"></path><path d="M623.2 783.2c-32.4 0-63.2-12.8-86-35.6-47.6-47.6-47.2-124.8 0-172 22.8-22.8 53.6-35.6 86-35.6s63.2 12.8 86 35.6c22.8 22.8 35.6 53.6 35.6 86s-12.8 63.2-35.6 86c-22.8 23.2-53.2 35.6-86 35.6z m0-230.8c-29.2 0-56.8 11.2-77.2 32-42.8 42.8-42.8 112 0 154.8 20.8 20.8 48 32 77.2 32 29.2 0 56.8-11.2 77.2-32 20.8-20.8 32-48 32-77.2 0-29.2-11.2-56.8-32-77.2-20.4-21.2-48-32.4-77.2-32.4z" fill="#4A555F" p-id="12975"></path><path d="M944.4 961.2l-21.6 21.6c-7.2 7.2-18.8 7.2-26 0l-162-162c-11.2-11.2-11.2-29.6 0-40.8l6.4-6.4c11.2-11.2 29.6-11.2 40.8 0l162 162c7.6 6.8 7.6 18.4 0.4 25.6z" fill="#71CDE1" p-id="12976"></path><path d="M508.8 546.8c-63.6 63.6-63.6 166.4 0 229.6 63.2 63.2 166.4 63.6 229.6 0 63.2-63.2 63.2-166.4 0-229.6-63.6-63.2-166.4-63.2-229.6 0z m196.4 196.4c-45.2 45.2-118.4 45.2-163.2 0-45.2-45.2-45.2-118.4 0-163.2 45.2-45.2 118.4-45.2 163.2 0 44.8 45.2 44.8 118.4 0 163.2z" fill="#71CDE1" p-id="12977"></path><path d="M910 994.4c-6.4 0-12.8-2.4-17.2-7.2l-162-162c-6.8-6.8-10.4-15.6-10.4-24.8 0-9.2 3.6-18 10.4-24.8l6.4-6.4c6.8-6.8 15.6-10.4 24.8-10.4 9.2 0 18 3.6 24.8 10.4l162 162c9.6 9.6 9.6 25.2 0 34.8l-21.6 21.6c-4.4 4-10.8 6.8-17.2 6.8z m-148-223.6c-6 0-12 2.4-16 6.8l-6.4 6.4c-4.4 4.4-6.8 10-6.8 16s2.4 12 6.8 16l162 162c4.8 4.8 12.8 4.8 17.2 0l21.6-21.6c4.8-4.8 4.8-12.4 0-17.2l-162-162c-4.8-4-10.4-6.4-16.4-6.4z" fill="#4A555F" p-id="12978"></path><path d="M623.2 830c-45.2 0-87.2-17.6-119.2-49.2-65.6-65.6-65.6-172.4 0-238.4 32-32 74-49.2 119.2-49.2s87.2 17.6 119.2 49.2c32 32 49.2 74 49.2 119.2s-17.6 87.2-49.2 119.2-74 49.2-119.2 49.2z m0-324.4c-41.6 0-80.8 16.4-110.4 45.6-60.8 60.8-60.8 160 0 220.8 29.6 29.6 68.8 45.6 110.4 45.6 41.6 0 80.8-16.4 110.4-45.6 29.6-29.6 45.6-68.8 45.6-110.4 0-41.6-16.4-80.8-45.6-110.4-29.2-29.6-68.4-45.6-110.4-45.6z m0 277.6c-32.4 0-63.2-12.8-86-35.6-47.6-47.6-47.6-124.8 0-172 22.8-22.8 53.6-35.6 86-35.6s63.2 12.8 86 35.6c22.8 22.8 35.6 53.6 35.6 86s-12.8 63.2-35.6 86c-22.8 23.2-53.2 35.6-86 35.6z m0-230.8c-29.2 0-56.8 11.2-77.2 32-42.8 42.8-42.8 112 0 154.8 20.8 20.8 48 32 77.2 32 29.2 0 56.8-11.2 77.2-32 20.8-20.8 32-48 32-77.2 0-29.2-11.2-56.8-32-77.2-20.4-21.2-48-32.4-77.2-32.4zM914.668 905.544l8.768 8.768-47.516 47.52-8.768-8.768z" fill="#4A555F" p-id="12979"></path><path d="M730.4 710.8H512l-1.6-4c-11.6-29.2-11.6-61.6 0-90.8l1.6-4h222.8l1.6 4c11.6 29.2 11.6 61.6 0 90.8l-0.4 1.2-3.6-2.4-1.6-0.4v5.6z m-5.6-7.6l5.6 2-5.6-2z m0 0l5.6 2-5.6-2z m-204.4-4.8h206c8.4-24 8.4-50 0-74h-206c-8.8 24.4-8.8 50.4 0 74z" fill="#4A555F" p-id="12980"></path><path d="M882.8 1024H68V0h814.8v882.4l-104.8-104.8c-4.4-4.4-10-6.8-16-6.8s-12 2.4-16 6.8l-3.2 3.2-3.2 3.2c-8.8 8.8-8.8 23.2 0 32.4l143.6 143.6v64z m-802.4-12.4h790.4v-46.8l-3.6-3.6-136.4-136.4c-7.2-7.2-10.4-16.4-10.4-25.6-28 20-61.6 30.8-96.8 30.8-45.2 0-87.2-17.6-119.2-49.2-65.6-65.6-65.6-172.4 0-238.4 32-32 74-49.2 119.2-49.2 44.8 0 87.2 17.6 119.2 49.2 58.8 58.8 64.8 150.4 18.8 216 9.6 0 18.8 3.6 25.6 10.4l84 84V12.4H80.4v999.2z m542.8-506c-41.6 0-80.8 16.4-110.4 45.6-60.8 60.8-60.8 160 0 220.8 29.6 29.6 68.8 45.6 110.4 45.6 41.6 0 80.8-16.4 110.4-45.6 60.8-60.8 60.8-160 0-220.8-29.2-29.6-68.4-45.6-110.4-45.6z" fill="#4A555F" p-id="12981"></path><path d="M445.2 405.2H153.6V79.6h291.6v325.6z m-279.2-12.4h266.8V91.6H166v301.2z" fill="#4A555F" p-id="12982"></path><path d="M525.6 136.8h260v12.4h-260z" fill="#4A555F" p-id="12983"></path><path d="M525.6 207.6h260V220h-260z" fill="#4A555F" p-id="12984"></path><path d="M525.6 278.8h260v12.4h-260z" fill="#4A555F" p-id="12985"></path><path d="M525.6 350h260v12.4h-260z" fill="#4A555F" p-id="12986"></path><path d="M160.8 506h52.8v12.4H160.8z" fill="#4A555F" p-id="12987"></path><path d="M263.2 506h297.2v12.4H263.2z" fill="#4A555F" p-id="12988"></path><path d="M263.2 581.2h216v12.4h-216z" fill="#4A555F" p-id="12989"></path><path d="M160.8 666h52.8v12.4H160.8z" fill="#4A555F" p-id="12990"></path><path d="M263.2 666h198.4v12.4H263.2z" fill="#4A555F" p-id="12991"></path><path d="M263.2 741.2h222.4v12.4H263.2z" fill="#4A555F" p-id="12992"></path><path d="M160.8 826h52.8v12.4H160.8z" fill="#4A555F" p-id="12993"></path><path d="M263.2 826h486.4v12.4H263.2z" fill="#4A555F" p-id="12994"></path><path d="M263.2 901.2h486.4v12.4H263.2z" fill="#4A555F" p-id="12995"></path><path d="M738.8 668.8h-10v-12.4h10v12.4z m-22 0h-12.4v-12.4h12.4v12.4z m-24.8 0h-12v-12.4h12.4v12.4z m-24.4 0h-12.4v-12.4h12.4v12.4z m-24.4 0h-12.4v-12.4h12.4v12.4z m-24.8 0h-12.4v-12.4h12.4v12.4z m-24.4 0h-12.4v-12.4h12.4v12.4z m-24.8 0h-12.4v-12.4h12.4v12.4z m-24.4 0h-12.4v-12.4h12.4v12.4z m-24.8 0h-12v-12.4h12.4v12.4z" fill="#4A555F" p-id="12996"></path></svg>