<?xml version="1.0" standalone="no"?><!DOCTYPE svg PUBLIC "-//W3C//DTD SVG 1.1//EN" "http://www.w3.org/Graphics/SVG/1.1/DTD/svg11.dtd"><svg t="1706580032538" class="icon" viewBox="0 0 1024 1024" version="1.1" xmlns="http://www.w3.org/2000/svg" p-id="9105" xmlns:xlink="http://www.w3.org/1999/xlink" width="200" height="200"><path d="M896 192H128c-35.2 0-64 28.8-64 64v512c0 35.2 28.8 64 64 64h768c35.2 0 64-28.8 64-64V256c0-35.2-28.8-64-64-64z m0 576H128V256h768v512z" p-id="9106"></path><path d="M224 700.8h268.8c19.2 0 32-12.8 32-32v-35.2c0-60.8-35.2-112-83.2-144 12.8-19.2 22.4-41.6 22.4-64 0-57.6-48-105.6-105.6-105.6s-105.6 48-105.6 105.6c0 25.6 9.6 48 22.4 64-48 28.8-83.2 83.2-83.2 147.2v32c0 19.2 12.8 32 32 32z m92.8-275.2c0-22.4 19.2-41.6 41.6-41.6s41.6 19.2 41.6 41.6-19.2 41.6-41.6 41.6-41.6-19.2-41.6-41.6zM256 636.8c0-57.6 44.8-105.6 102.4-105.6 54.4 0 102.4 48 102.4 102.4v3.2H256zM608 640h160c19.2 0 32-12.8 32-32s-12.8-32-32-32h-160c-19.2 0-32 12.8-32 32s12.8 32 32 32zM608 448h192c19.2 0 32-12.8 32-32s-12.8-32-32-32h-192c-19.2 0-32 12.8-32 32s12.8 32 32 32z" p-id="9107"></path></svg>