<?xml version="1.0" standalone="no"?><!DOCTYPE svg PUBLIC "-//W3C//DTD SVG 1.1//EN" "http://www.w3.org/Graphics/SVG/1.1/DTD/svg11.dtd"><svg t="1706580040656" class="icon" viewBox="0 0 1024 1024" version="1.1" xmlns="http://www.w3.org/2000/svg" p-id="10139" xmlns:xlink="http://www.w3.org/1999/xlink" width="200" height="200"><path d="M512.07 592.01c-132.31 0-240-107.69-240-240s107.69-240 240-240 240 107.69 240 240-107.68 240-240 240z m0-384c-79.38 0-144 64.62-144 144s64.62 144 144 144 144-64.62 144-144-64.62-144-144-144z" fill="#131414" p-id="10140"></path><path d="M832.07 912.01c-26.5 0-48-21.5-48-48 0-150-122-272-272-272s-272 122-272 272c0 26.5-21.5 48-48 48s-48-21.5-48-48c0-202.94 165.06-368 368-368s368 165.06 368 368c0 26.5-21.5 48-48 48z" fill="#131414" p-id="10141"></path></svg>