<?xml version="1.0" standalone="no"?><!DOCTYPE svg PUBLIC "-//W3C//DTD SVG 1.1//EN" "http://www.w3.org/Graphics/SVG/1.1/DTD/svg11.dtd"><svg t="1706579974997" class="icon" viewBox="0 0 1024 1024" version="1.1" xmlns="http://www.w3.org/2000/svg" p-id="6163" xmlns:xlink="http://www.w3.org/1999/xlink" width="200" height="200"><path d="M686.252754 642.753548a47.237633 47.237633 0 0 0-31.223637-44.385825l-7.16608-3.363671a325.179184 325.179184 0 0 0 141.859145-268.728019c3.36367-115.242274-57.986754-223.099098-160.139963-281.743961a333.295867 333.295867 0 0 0-330.882799 0c-102.153209 58.644863-163.43051 166.501687-160.139963 281.817084a324.667321 324.667321 0 0 0 142.078515 268.654896C129.784665 661.107489 24.925895 798.506114 3.500777 958.061091a50.601303 50.601303 0 0 0-2.486192 14.844024l0.292493 3.656163 0.21937 0.43874a44.751442 44.751442 0 0 0 22.668214 40.290922c14.624654 8.482299 32.759225 8.482299 47.383879 0a44.824565 44.824565 0 0 0 22.668214-40.290922l-0.219369-0.43874h1.023725c19.88953-176.519575 167.159796-313.698831 349.45611-325.5448a279.0384 279.0384 0 0 0 39.267197 0c45.702044 3.071177 88.99102 13.893421 128.770079 31.07739a47.310756 47.310756 0 0 0 73.708257-39.267197zM485.602499 557.930554a645.239739 645.239739 0 0 0-20.986378-0.511863c-7.019834 0-14.332161 0.292493-21.278872 0.511863-121.384629-12.430956-213.008087-112.609837-211.618745-231.288904 3.36367-121.384629 104.6394-218.638579 229.60707-220.247291 124.821423-1.608712 228.656467 93.085923 235.164438 214.470552 6.581094 121.165259-86.577952 225.950906-210.887513 237.065643zM683.839686 701.837151a161.017442 161.017442 0 0 1 227.413371 0c52.868125 52.648755 61.204177 133.230599 25.300652 194.800393l57.036151 57.182397a40.802785 40.802785 0 1 1-57.767384 57.767384l-57.036151-57.036151a161.236812 161.236812 0 0 1-194.946639-25.227529 161.017442 161.017442 0 0 1 0-227.413371z m113.706686 34.8798a78.973132 78.973132 0 1 0 0 157.946264 78.973132 78.973132 0 0 0 0-157.946264z" fill="#333333" p-id="6164"></path></svg>