<?xml version="1.0" standalone="no"?><!DOCTYPE svg PUBLIC "-//W3C//DTD SVG 1.1//EN" "http://www.w3.org/Graphics/SVG/1.1/DTD/svg11.dtd"><svg t="1706630537563" class="icon" viewBox="0 0 1024 1024" version="1.1" xmlns="http://www.w3.org/2000/svg" p-id="6365" xmlns:xlink="http://www.w3.org/1999/xlink" width="200" height="200"><path d="M218.949818 139.636364a125.765818 125.765818 0 0 0-125.672727 125.858909v339.874909A126.138182 126.138182 0 0 0 219.229091 731.229091h17.221818l70.190546 125.672727a42.356364 42.356364 0 0 0 36.910545 21.969455h0.186182l0.232727-0.232728a42.728727 42.728727 0 0 0 36.910546-21.317818l72.331636-126.277818h44.032v-85.178182H428.404364a42.728727 42.728727 0 0 0-36.910546 21.410909L344.343273 749.381818l-45.614546-81.733818a42.635636 42.635636 0 0 0-37.376-21.969455h-42.356363a40.494545 40.494545 0 0 1-40.587637-40.494545V265.448727c0-22.388364 18.152727-40.494545 40.541091-40.494545h572.834909c22.388364 0 40.541091 18.106182 40.541091 40.494545v211.549091h85.317818V265.495273A126.138182 126.138182 0 0 0 791.784727 139.636364H218.949818z" p-id="6366"></path><path d="M279.272727 422.725818a50.362182 50.362182 0 1 0 100.724364 0 50.362182 50.362182 0 1 0-100.724364 0Z" p-id="6367"></path><path d="M418.909091 422.725818a50.362182 50.362182 0 1 0 100.724364 0 50.362182 50.362182 0 1 0-100.724364 0Z" p-id="6368"></path><path d="M558.545455 422.725818a50.362182 50.362182 0 1 0 100.724363 0 50.362182 50.362182 0 1 0-100.724363 0Z" p-id="6369"></path><path d="M916.992 821.853091l-42.821818-42.821818a165.003636 165.003636 0 0 0 26.205091-89.041455 166.679273 166.679273 0 1 0-76.334546 140.381091l42.263273 42.309818a35.84 35.84 0 1 0 50.734545-50.827636z m-183.668364-36.677818a95.045818 95.045818 0 0 1-95.232-94.906182v-0.325818a95.232 95.232 0 1 1 95.232 95.232z" p-id="6370"></path></svg>